Coordinates
version=1
nRows=22
nColumns=24
inDegrees=yes

Units are S.I. units (second, meters, Newtons, ...)
Angles are in degrees.

endheader
time	pelvis_tilt	pelvis_list	pelvis_rotation	pelvis_tx	pelvis_ty	pelvis_tz	hip_flexion_r	hip_adduction_r	hip_rotation_r	knee_angle_r	ankle_angle_r	subtalar_angle_r	mtp_angle_r	hip_flexion_l	hip_adduction_l	hip_rotation_l	knee_angle_l	ankle_angle_l	subtalar_angle_l	mtp_angle_l	lumbar_extension	lumbar_bending	lumbar_rotation
      1.23300000	     -1.03822572	      1.95137623	     -1.19027347	      0.22524121	      1.03312289	      0.26390835	     15.56708319	     -2.87659596	     -6.71980532	    -61.99809703	      1.01678844	     -7.85440722	      7.17883037	      8.22443475	      6.04396298	      4.92614882	     -9.91721644	      2.98463336	    -11.29972730	     -1.78762232	     -5.72638575	     -3.15322435	      2.92202857
      1.23716667	     -1.07055356	      1.86615826	     -1.29769734	      0.23061301	      1.03375811	      0.26377601	     16.12374170	     -2.71151608	     -6.48333288	    -61.63551904	      1.65384717	     -8.01762090	      7.15290307	      7.80446747	      5.95447539	      4.88076501	     -9.67861711	      3.12874976	    -11.31919710	     -1.80595104	     -5.70310213	     -3.03303952	      2.92239271
      1.24133333	     -1.09889951	      1.79439068	     -1.41691142	      0.23594035	      1.03435228	      0.26364786	     16.67729037	     -2.56197715	     -6.23153277	    -61.24652333	      2.38655217	     -7.99637056	      6.90809450	      7.38538857	      5.88027448	      4.82841266	     -9.44727945	      3.28130704	    -11.30531358	     -1.94181071	     -5.72512120	     -2.93219914	      3.03702015
      1.24550000	     -1.14686215	      1.68703571	     -1.52761765	      0.24129503	      1.03493240	      0.26353899	     17.22103448	     -2.36047843	     -5.99038707	    -60.75368235	      2.92811080	     -8.16401559	      6.87521741	      6.98239432	      5.76625108	      4.77436616	     -9.20879290	      3.40589602	    -11.32261242	     -1.96480576	     -5.70192591	     -2.75956440	      3.01692081
      1.24966667	     -1.17265273	      1.59644379	     -1.64052685	      0.24663105	      1.03550690	      0.26344308	     17.73105092	     -2.17730274	     -5.74819455	    -60.21690488	      3.48183047	     -8.28564737	      6.83298561	      6.55515265	      5.67144077	      4.71349892	     -8.96742926	      3.53498928	    -11.33180924	     -1.99468355	     -5.71803080	     -2.61700622	      3.02463091
      1.25383333	     -1.17865840	      1.50346911	     -1.76145906	      0.25197356	      1.03609198	      0.26336749	     18.20298927	     -1.98954840	     -5.49837300	    -59.62350738	      4.03791617	     -8.29641678	      6.63364176	      6.09543141	      5.57426536	      4.65513318	     -8.70416516	      3.67330925	    -11.30405907	     -2.12067524	     -5.75695340	     -2.47868682	      3.12815908
      1.25800000	     -1.21783850	      1.40992620	     -1.89404768	      0.25726978	      1.03657912	      0.26334963	     18.70512198	     -1.78104667	     -5.22624559	    -58.98189504	      4.53921990	     -8.44885259	      4.59930280	      5.69165531	      5.47200080	      4.53164863	     -8.47811546	      3.84053363	    -11.25209120	     -3.39704323	     -5.76134702	     -2.35454480	      3.20896269
      1.26216667	     -1.25649323	      1.30890670	     -1.98356964	      0.26258653	      1.03705694	      0.26325963	     19.17482999	     -1.58462507	     -5.01163014	    -58.26696101	      4.98228839	     -8.58525169	      4.60031417	      5.27917738	      5.37212433	      4.51401554	     -8.23895479	      3.98862120	    -11.28432748	     -3.40157377	     -5.75728424	     -2.19948978	      3.16727846
      1.26633333	     -1.29394767	      1.21112229	     -2.08527821	      0.26788179	      1.03749228	      0.26320794	     19.63135643	     -1.38348903	     -4.77961976	    -57.50118677	      5.37842962	     -8.70688463	      4.59601210	      4.86683815	      5.27396044	      4.46854653	     -7.99722532	      4.11513476	    -11.31174426	     -3.41093791	     -5.76696357	     -2.05610088	      3.14819726
      1.27050000	     -1.33274847	      1.11840484	     -2.18514977	      0.27315912	      1.03788153	      0.26316731	     20.07508525	     -1.18662915	     -4.54768582	    -56.68593896	      5.73709836	     -8.82713200	      4.58620152	      4.46037182	      5.18274840	      4.41979879	     -7.76112524	      4.24163664	    -11.33972349	     -3.42492380	     -5.77620521	     -1.92176353	      3.14234164
      1.27466667	     -1.33533190	      0.99703959	     -2.26971597	      0.27841886	      1.03832870	      0.26313059	     20.44588160	     -0.95766836	     -4.32969566	    -55.78441389	      6.02879940	     -8.96459333	      4.55783644	      4.02021746	      5.06247074	      4.38191157	     -7.53713087	      4.35973446	    -11.36672320	     -3.45653523	     -5.84497849	     -1.76308077	      3.15645006
      1.27883333	     -1.37648858	      0.92549037	     -2.36205669	      0.28367686	      1.03862858	      0.26308890	     20.86361835	     -0.78856225	     -4.10833738	    -54.87703506	      6.31550195	     -9.09389631	      4.53617555	      3.61925497	      4.99837877	      4.33521201	     -7.30026617	      4.49337854	    -11.39997686	     -3.48155846	     -5.84447977	     -1.64653631	      3.14656215
      1.28300000	     -1.41265252	      0.82772227	     -2.44280454	      0.28891935	      1.03892811	      0.26305924	     21.24479865	     -0.58978851	     -3.90068216	    -53.89164483	      6.54958340	     -9.22190184	      4.51125096	      3.21801347	      4.90602537	      4.30195343	     -7.07389484	      4.62596338	    -11.43458484	     -3.50906789	     -5.85962741	     -1.50864542	      3.13638865
      1.28716667	     -1.41919275	      0.72607402	     -2.50287369	      0.29413449	      1.03924468	      0.26302935	     21.56582579	     -0.38788462	     -3.70290923	    -52.82875686	      6.64932533	     -9.44351344	      4.43531749	      2.78988446	      4.81223642	      4.30372738	     -6.85491694	      4.74153992	    -11.48340120	     -3.59092357	     -5.92115990	     -1.38179482	      3.12780753
      1.29133333	     -1.45390458	      0.62495347	     -2.55809796	      0.29935109	      1.03947970	      0.26298570	     21.90006232	     -0.19286110	     -3.51935077	    -51.72353455	      6.77186684	     -9.61471825	      4.36020099	      2.39798697	      4.71971589	      4.29602628	     -6.64615615	      4.86702306	    -11.53755879	     -3.67571159	     -5.94276873	     -1.24197306	      3.09636298
      1.29550000	     -1.52004775	      0.54791382	     -2.61017658	      0.30453034	      1.03959921	      0.26294384	     22.26115516	     -0.02499945	     -3.33325757	    -50.59064453	      6.90480102	     -9.75410576	      4.30876383	      2.05971096	      4.65374239	      4.27044567	     -6.47138567	      4.99054635	    -11.59796641	     -3.73552420	     -5.93535487	     -1.12630377	      3.05937973
      1.29966667	     -1.54549042	      0.46885824	     -2.64977270	      0.30972595	      1.03976335	      0.26289969	     22.54808041	      0.13659892	     -3.17034576	    -49.38315716	      6.90091281	     -9.98992033	      4.21966494	      1.65751145	      4.58780198	      4.28895960	     -6.25344904	      5.11597602	    -11.65674212	     -3.83839355	     -5.96701902	     -1.02291769	      3.00294012
      1.30383333	     -1.59476875	      0.38804661	     -2.68032397	      0.31490895	      1.03986038	      0.26285521	     22.83832049	      0.29860830	     -3.01385282	    -48.12198679	      6.89552410	    -10.20142427	      4.12581750	      1.29567082	      4.51937327	      4.30217877	     -6.06486958	      5.23675573	    -11.72392596	     -3.95130583	     -5.97704573	     -0.91127031	      2.93974718
      1.30800000	     -1.64248845	      0.31719185	     -2.70230106	      0.32008137	      1.03991232	      0.26279785	     23.10743685	      0.44320443	     -2.86756230	    -46.81328994	      6.85600969	    -10.42229636	      4.02605061	      0.93580486	      4.46301528	      4.32074845	     -5.88076771	      5.35692187	    -11.78873035	     -4.07445122	     -5.99519083	     -0.80936109	      2.86719244
      1.31216667	     -1.68551548	      0.24805747	     -2.70919281	      0.32527393	      1.03995131	      0.26272778	     23.34354772	      0.57463640	     -2.74951634	    -45.44510309	      6.77986721	    -10.63402534	      3.93649188	      0.57318617	      4.40856071	      4.33736380	     -5.70127496	      5.47703328	    -11.84815249	     -4.18444119	     -6.00114561	     -0.70756183	      2.79315951
      1.31633333	     -1.74438843	      0.18196008	     -2.71045455	      0.33045124	      1.03992195	      0.26266367	     23.57629427	      0.70142119	     -2.63871192	    -44.02613187	      6.66502867	    -10.87226970	      3.84468590	      0.23192321	      4.35590104	      4.35668541	     -5.52684985	      5.59565744	    -11.90645678	     -4.29730973	     -6.00596345	     -0.61252095	      2.70464033
      1.32050000	     -1.80005871	      0.13794560	     -2.70827382	      0.33562312	      1.03985189	      0.26260396	     23.78735293	      0.80281702	     -2.52485922	    -42.56366776	      6.51463653	    -11.12178106	      3.74229879	     -0.10981425	      4.32799244	      4.38683264	     -5.35627752	      5.70679726	    -11.96186365	     -4.42569093	     -6.01083984	     -0.54374175	      2.60487007
